# Wavefront OBJ file automatically generated by Tiled2Unity

# Vertices (Count = 370)
v 0 -300 0
v -100 -300 0
v -100 -200 0
v 0 -200 0
v -200 -300 0
v -200 -200 0
v -300 -300 0
v -300 -200 0
v -400 -300 0
v -400 -200 0
v -500 -300 0
v -500 -200 0
v -600 -300 0
v -600 -200 0
v -700 -300 0
v -700 -200 0
v -800 -300 0
v -800 -200 0
v -900 -300 0
v -900 -200 0
v -1000 -300 0
v -1000 -200 0
v -1100 -300 0
v -1100 -200 0
v -1200 -300 0
v -1200 -200 0
v -1300 -300 0
v -1300 -200 0
v -1400 -300 0
v -1400 -200 0
v -1500 -300 0
v -1500 -200 0
v -1600 -300 0
v -1600 -200 0
v -1700 -300 0
v -1700 -200 0
v -1800 -300 0
v -1800 -200 0
v -1900 -300 0
v -1900 -200 0
v -2000 -300 0
v -2000 -200 0
v -2100 -300 0
v -2100 -200 0
v -2200 -300 0
v -2200 -200 0
v -2300 -300 0
v -2300 -200 0
v -2400 -300 0
v -2400 -200 0
v -2500 -300 0
v -2500 -200 0
v -2600 -300 0
v -2600 -200 0
v -2700 -300 0
v -2700 -200 0
v -2800 -300 0
v -2800 -200 0
v -2900 -300 0
v -2900 -200 0
v -3000 -300 0
v -3000 -200 0
v -3100 -300 0
v -3100 -200 0
v -3200 -300 0
v -3200 -200 0
v -3300 -300 0
v -3300 -200 0
v -3400 -300 0
v -3400 -200 0
v -3500 -300 0
v -3500 -200 0
v -3600 -300 0
v -3600 -200 0
v -3700 -300 0
v -3700 -200 0
v -3800 -300 0
v -3800 -200 0
v -3900 -300 0
v -3900 -200 0
v -4000 -300 0
v -4000 -200 0
v -4100 -300 0
v -4100 -200 0
v -4200 -300 0
v -4200 -200 0
v -4300 -300 0
v -4300 -200 0
v -4400 -300 0
v -4400 -200 0
v -4500 -300 0
v -4500 -200 0
v -4600 -300 0
v -4600 -200 0
v -4700 -300 0
v -4700 -200 0
v -4800 -300 0
v -4800 -200 0
v -4900 -300 0
v -4900 -200 0
v -5000 -300 0
v -5000 -200 0
v 0 -400 0
v -100 -400 0
v -4800 -400 0
v -4900 -400 0
v -5000 -400 0
v 0 -500 0
v -100 -500 0
v -4800 -500 0
v -4900 -500 0
v -5000 -500 0
v 0 -600 0
v -100 -600 0
v -4800 -600 0
v -4900 -600 0
v -5000 -600 0
v 0 -700 0
v -100 -700 0
v -4800 -700 0
v -4900 -700 0
v -5000 -700 0
v 0 -800 0
v -100 -800 0
v -500 -800 0
v -600 -800 0
v -600 -700 0
v -500 -700 0
v -700 -800 0
v -700 -700 0
v -800 -800 0
v -800 -700 0
v -900 -800 0
v -1000 -800 0
v -1000 -700 0
v -900 -700 0
v -1100 -800 0
v -1100 -700 0
v -3600 -800 0
v -3700 -800 0
v -3700 -700 0
v -3600 -700 0
v -3800 -800 0
v -3800 -700 0
v -3900 -800 0
v -4000 -800 0
v -4000 -700 0
v -3900 -700 0
v -4100 -800 0
v -4100 -700 0
v -4200 -800 0
v -4200 -700 0
v -4800 -800 0
v -4900 -800 0
v -5000 -800 0
v 0 -900 0
v -100 -900 0
v -4800 -900 0
v -4900 -900 0
v -5000 -900 0
v 0 -1000 0
v -100 -1000 0
v -300 -1000 0
v -400 -1000 0
v -400 -900 0
v -300 -900 0
v -500 -1000 0
v -500 -900 0
v -600 -1000 0
v -600 -900 0
v -700 -1000 0
v -700 -900 0
v -4100 -1000 0
v -4200 -1000 0
v -4200 -900 0
v -4100 -900 0
v -4300 -1000 0
v -4300 -900 0
v -4400 -1000 0
v -4400 -900 0
v -4500 -1000 0
v -4500 -900 0
v -4800 -1000 0
v -4900 -1000 0
v -5000 -1000 0
v 0 -1100 0
v -100 -1100 0
v -200 -1100 0
v -300 -1100 0
v -200 -1000 0
v -400 -1100 0
v -4400 -1100 0
v -4500 -1100 0
v -4600 -1100 0
v -4600 -1000 0
v -4700 -1100 0
v -4700 -1000 0
v -4800 -1100 0
v -4900 -1100 0
v -5000 -1100 0
v 0 -1200 0
v -100 -1200 0
v -4600 -1200 0
v -4700 -1200 0
v -4800 -1200 0
v -4900 -1200 0
v -5000 -1200 0
v 0 -1300 0
v -100 -1300 0
v -4800 -1300 0
v -4900 -1300 0
v -5000 -1300 0
v 0 -1400 0
v -100 -1400 0
v -4800 -1400 0
v -4900 -1400 0
v -5000 -1400 0
v 0 -1500 0
v -100 -1500 0
v -4800 -1500 0
v -4900 -1500 0
v -5000 -1500 0
v 0 -1600 0
v -100 -1600 0
v -200 -1600 0
v -200 -1500 0
v -300 -1600 0
v -300 -1500 0
v -400 -1600 0
v -400 -1500 0
v -500 -1600 0
v -500 -1500 0
v -600 -1600 0
v -600 -1500 0
v -700 -1600 0
v -700 -1500 0
v -800 -1600 0
v -800 -1500 0
v -900 -1600 0
v -900 -1500 0
v -1000 -1600 0
v -1000 -1500 0
v -1100 -1600 0
v -1100 -1500 0
v -1200 -1600 0
v -1200 -1500 0
v -1300 -1600 0
v -1300 -1500 0
v -1400 -1600 0
v -1400 -1500 0
v -1500 -1600 0
v -1500 -1500 0
v -1600 -1600 0
v -1600 -1500 0
v -1700 -1600 0
v -1700 -1500 0
v -1800 -1600 0
v -1800 -1500 0
v -1900 -1600 0
v -1900 -1500 0
v -2000 -1600 0
v -2000 -1500 0
v -2100 -1600 0
v -2100 -1500 0
v -2200 -1600 0
v -2200 -1500 0
v -2300 -1600 0
v -2300 -1500 0
v -2400 -1600 0
v -2400 -1500 0
v -2500 -1600 0
v -2500 -1500 0
v -2600 -1600 0
v -2600 -1500 0
v -2700 -1600 0
v -2700 -1500 0
v -2800 -1600 0
v -2800 -1500 0
v -2900 -1600 0
v -2900 -1500 0
v -3000 -1600 0
v -3000 -1500 0
v -3100 -1600 0
v -3100 -1500 0
v -3200 -1600 0
v -3200 -1500 0
v -3300 -1600 0
v -3300 -1500 0
v -3400 -1600 0
v -3400 -1500 0
v -3500 -1600 0
v -3500 -1500 0
v -3600 -1600 0
v -3600 -1500 0
v -3700 -1600 0
v -3700 -1500 0
v -3800 -1600 0
v -3800 -1500 0
v -3900 -1600 0
v -3900 -1500 0
v -4000 -1600 0
v -4000 -1500 0
v -4100 -1600 0
v -4100 -1500 0
v -4200 -1600 0
v -4200 -1500 0
v -4300 -1600 0
v -4300 -1500 0
v -4400 -1600 0
v -4400 -1500 0
v -4500 -1600 0
v -4500 -1500 0
v -4600 -1600 0
v -4600 -1500 0
v -4700 -1600 0
v -4700 -1500 0
v -4800 -1600 0
v -4900 -1600 0
v -5000 -1600 0
v 0 -1700 0
v -100 -1700 0
v -200 -1700 0
v -300 -1700 0
v -400 -1700 0
v -500 -1700 0
v -600 -1700 0
v -700 -1700 0
v -800 -1700 0
v -900 -1700 0
v -1000 -1700 0
v -1100 -1700 0
v -1200 -1700 0
v -1300 -1700 0
v -1400 -1700 0
v -1500 -1700 0
v -1600 -1700 0
v -1700 -1700 0
v -1800 -1700 0
v -1900 -1700 0
v -2000 -1700 0
v -2100 -1700 0
v -2200 -1700 0
v -2300 -1700 0
v -2400 -1700 0
v -2500 -1700 0
v -2600 -1700 0
v -2700 -1700 0
v -2800 -1700 0
v -2900 -1700 0
v -3000 -1700 0
v -3100 -1700 0
v -3200 -1700 0
v -3300 -1700 0
v -3400 -1700 0
v -3500 -1700 0
v -3600 -1700 0
v -3700 -1700 0
v -3800 -1700 0
v -3900 -1700 0
v -4000 -1700 0
v -4100 -1700 0
v -4200 -1700 0
v -4300 -1700 0
v -4400 -1700 0
v -4500 -1700 0
v -4600 -1700 0
v -4700 -1700 0
v -4800 -1700 0
v -4900 -1700 0
v -5000 -1700 0

# Texture cooridinates (Count = 32)
vt 0.2001221 0.6001221
vt 0.2998779 0.6001221
vt 0.2998779 0.6998779
vt 0.2001221 0.6998779
vt 0.8001221 0.8001221
vt 0.8998779 0.8001221
vt 0.8998779 0.8998779
vt 0.8001221 0.8998779
vt 0.1001221 0.6001221
vt 0.1998779 0.6001221
vt 0.1998779 0.6998779
vt 0.1001221 0.6998779
vt 0.7001221 0.1001221
vt 0.7998779 0.1001221
vt 0.7998779 0.1998779
vt 0.7001221 0.1998779
vt 0.8001221 0.1001221
vt 0.8998779 0.1001221
vt 0.8998779 0.1998779
vt 0.8001221 0.1998779
vt 0.900122 0.1001221
vt 0.9998779 0.1001221
vt 0.9998779 0.1998779
vt 0.900122 0.1998779
vt 0.3001221 0.900122
vt 0.3998779 0.900122
vt 0.3998779 0.9998779
vt 0.3001221 0.9998779
vt 0.3001221 0.4001221
vt 0.3998779 0.4001221
vt 0.3998779 0.4998779
vt 0.3001221 0.4998779

# Normal
vn 0 0 -1

# Groups (Count = 1)

g mesh_0001
f 1/1/1 2/2/1 3/3/1 4/4/1
f 2/5/1 5/6/1 6/7/1 3/8/1
f 5/5/1 7/6/1 8/7/1 6/8/1
f 7/5/1 9/6/1 10/7/1 8/8/1
f 9/5/1 11/6/1 12/7/1 10/8/1
f 11/5/1 13/6/1 14/7/1 12/8/1
f 13/5/1 15/6/1 16/7/1 14/8/1
f 15/5/1 17/6/1 18/7/1 16/8/1
f 17/5/1 19/6/1 20/7/1 18/8/1
f 19/5/1 21/6/1 22/7/1 20/8/1
f 21/5/1 23/6/1 24/7/1 22/8/1
f 23/5/1 25/6/1 26/7/1 24/8/1
f 25/5/1 27/6/1 28/7/1 26/8/1
f 27/5/1 29/6/1 30/7/1 28/8/1
f 29/5/1 31/6/1 32/7/1 30/8/1
f 31/5/1 33/6/1 34/7/1 32/8/1
f 33/5/1 35/6/1 36/7/1 34/8/1
f 35/5/1 37/6/1 38/7/1 36/8/1
f 37/5/1 39/6/1 40/7/1 38/8/1
f 39/5/1 41/6/1 42/7/1 40/8/1
f 41/5/1 43/6/1 44/7/1 42/8/1
f 43/5/1 45/6/1 46/7/1 44/8/1
f 45/5/1 47/6/1 48/7/1 46/8/1
f 47/5/1 49/6/1 50/7/1 48/8/1
f 49/5/1 51/6/1 52/7/1 50/8/1
f 51/5/1 53/6/1 54/7/1 52/8/1
f 53/5/1 55/6/1 56/7/1 54/8/1
f 55/5/1 57/6/1 58/7/1 56/8/1
f 57/5/1 59/6/1 60/7/1 58/8/1
f 59/5/1 61/6/1 62/7/1 60/8/1
f 61/5/1 63/6/1 64/7/1 62/8/1
f 63/5/1 65/6/1 66/7/1 64/8/1
f 65/5/1 67/6/1 68/7/1 66/8/1
f 67/5/1 69/6/1 70/7/1 68/8/1
f 69/5/1 71/6/1 72/7/1 70/8/1
f 71/5/1 73/6/1 74/7/1 72/8/1
f 73/5/1 75/6/1 76/7/1 74/8/1
f 75/5/1 77/6/1 78/7/1 76/8/1
f 77/5/1 79/6/1 80/7/1 78/8/1
f 79/5/1 81/6/1 82/7/1 80/8/1
f 81/5/1 83/6/1 84/7/1 82/8/1
f 83/5/1 85/6/1 86/7/1 84/8/1
f 85/5/1 87/6/1 88/7/1 86/8/1
f 87/5/1 89/6/1 90/7/1 88/8/1
f 89/5/1 91/6/1 92/7/1 90/8/1
f 91/5/1 93/6/1 94/7/1 92/8/1
f 93/5/1 95/6/1 96/7/1 94/8/1
f 95/5/1 97/6/1 98/7/1 96/8/1
f 97/5/1 99/6/1 100/7/1 98/8/1
f 99/1/1 101/2/1 102/3/1 100/4/1
f 103/1/1 104/2/1 2/3/1 1/4/1
f 105/9/1 106/10/1 99/11/1 97/12/1
f 106/1/1 107/2/1 101/3/1 99/4/1
f 108/1/1 109/2/1 104/3/1 103/4/1
f 110/9/1 111/10/1 106/11/1 105/12/1
f 111/1/1 112/2/1 107/3/1 106/4/1
f 113/1/1 114/2/1 109/3/1 108/4/1
f 115/9/1 116/10/1 111/11/1 110/12/1
f 116/1/1 117/2/1 112/3/1 111/4/1
f 118/1/1 119/2/1 114/3/1 113/4/1
f 120/9/1 121/10/1 116/11/1 115/12/1
f 121/1/1 122/2/1 117/3/1 116/4/1
f 123/1/1 124/2/1 119/3/1 118/4/1
f 125/13/1 126/14/1 127/15/1 128/16/1
f 126/17/1 129/18/1 130/19/1 127/20/1
f 129/21/1 131/22/1 132/23/1 130/24/1
f 133/13/1 134/14/1 135/15/1 136/16/1
f 134/21/1 137/22/1 138/23/1 135/24/1
f 139/13/1 140/14/1 141/15/1 142/16/1
f 140/21/1 143/22/1 144/23/1 141/24/1
f 145/13/1 146/14/1 147/15/1 148/16/1
f 146/17/1 149/18/1 150/19/1 147/20/1
f 149/21/1 151/22/1 152/23/1 150/24/1
f 153/9/1 154/10/1 121/11/1 120/12/1
f 154/1/1 155/2/1 122/3/1 121/4/1
f 156/1/1 157/2/1 124/3/1 123/4/1
f 158/9/1 159/10/1 154/11/1 153/12/1
f 159/1/1 160/2/1 155/3/1 154/4/1
f 161/1/1 162/2/1 157/3/1 156/4/1
f 163/13/1 164/14/1 165/15/1 166/16/1
f 164/17/1 167/18/1 168/19/1 165/20/1
f 167/17/1 169/18/1 170/19/1 168/20/1
f 169/21/1 171/22/1 172/23/1 170/24/1
f 173/13/1 174/14/1 175/15/1 176/16/1
f 174/17/1 177/18/1 178/19/1 175/20/1
f 177/17/1 179/18/1 180/19/1 178/20/1
f 179/21/1 181/22/1 182/23/1 180/24/1
f 183/9/1 184/10/1 159/11/1 158/12/1
f 184/1/1 185/2/1 160/3/1 159/4/1
f 186/1/1 187/2/1 162/3/1 161/4/1
f 188/13/1 189/14/1 163/15/1 190/16/1
f 189/21/1 191/22/1 164/23/1 163/24/1
f 192/13/1 193/14/1 181/15/1 179/16/1
f 193/17/1 194/18/1 195/19/1 181/20/1
f 194/21/1 196/22/1 197/23/1 195/24/1
f 198/9/1 199/10/1 184/11/1 183/12/1
f 199/1/1 200/2/1 185/3/1 184/4/1
f 201/1/1 202/2/1 187/3/1 186/4/1
f 203/13/1 204/14/1 196/15/1 194/16/1
f 204/21/1 205/22/1 198/23/1 196/24/1
f 205/9/1 206/10/1 199/11/1 198/12/1
f 206/1/1 207/2/1 200/3/1 199/4/1
f 208/1/1 209/2/1 202/3/1 201/4/1
f 210/9/1 211/10/1 206/11/1 205/12/1
f 211/1/1 212/2/1 207/3/1 206/4/1
f 213/1/1 214/2/1 209/3/1 208/4/1
f 215/9/1 216/10/1 211/11/1 210/12/1
f 216/1/1 217/2/1 212/3/1 211/4/1
f 218/1/1 219/2/1 214/3/1 213/4/1
f 220/9/1 221/10/1 216/11/1 215/12/1
f 221/1/1 222/2/1 217/3/1 216/4/1
f 223/1/1 224/2/1 219/3/1 218/4/1
f 224/25/1 225/26/1 226/27/1 219/28/1
f 225/25/1 227/26/1 228/27/1 226/28/1
f 227/25/1 229/26/1 230/27/1 228/28/1
f 229/25/1 231/26/1 232/27/1 230/28/1
f 231/25/1 233/26/1 234/27/1 232/28/1
f 233/25/1 235/26/1 236/27/1 234/28/1
f 235/25/1 237/26/1 238/27/1 236/28/1
f 237/25/1 239/26/1 240/27/1 238/28/1
f 239/25/1 241/26/1 242/27/1 240/28/1
f 241/25/1 243/26/1 244/27/1 242/28/1
f 243/25/1 245/26/1 246/27/1 244/28/1
f 245/25/1 247/26/1 248/27/1 246/28/1
f 247/25/1 249/26/1 250/27/1 248/28/1
f 249/25/1 251/26/1 252/27/1 250/28/1
f 251/25/1 253/26/1 254/27/1 252/28/1
f 253/25/1 255/26/1 256/27/1 254/28/1
f 255/25/1 257/26/1 258/27/1 256/28/1
f 257/25/1 259/26/1 260/27/1 258/28/1
f 259/25/1 261/26/1 262/27/1 260/28/1
f 261/25/1 263/26/1 264/27/1 262/28/1
f 263/25/1 265/26/1 266/27/1 264/28/1
f 265/25/1 267/26/1 268/27/1 266/28/1
f 267/25/1 269/26/1 270/27/1 268/28/1
f 269/25/1 271/26/1 272/27/1 270/28/1
f 271/25/1 273/26/1 274/27/1 272/28/1
f 273/25/1 275/26/1 276/27/1 274/28/1
f 275/25/1 277/26/1 278/27/1 276/28/1
f 277/25/1 279/26/1 280/27/1 278/28/1
f 279/25/1 281/26/1 282/27/1 280/28/1
f 281/25/1 283/26/1 284/27/1 282/28/1
f 283/25/1 285/26/1 286/27/1 284/28/1
f 285/25/1 287/26/1 288/27/1 286/28/1
f 287/25/1 289/26/1 290/27/1 288/28/1
f 289/25/1 291/26/1 292/27/1 290/28/1
f 291/25/1 293/26/1 294/27/1 292/28/1
f 293/25/1 295/26/1 296/27/1 294/28/1
f 295/25/1 297/26/1 298/27/1 296/28/1
f 297/25/1 299/26/1 300/27/1 298/28/1
f 299/25/1 301/26/1 302/27/1 300/28/1
f 301/25/1 303/26/1 304/27/1 302/28/1
f 303/25/1 305/26/1 306/27/1 304/28/1
f 305/25/1 307/26/1 308/27/1 306/28/1
f 307/25/1 309/26/1 310/27/1 308/28/1
f 309/25/1 311/26/1 312/27/1 310/28/1
f 311/25/1 313/26/1 314/27/1 312/28/1
f 313/25/1 315/26/1 316/27/1 314/28/1
f 315/25/1 317/26/1 220/27/1 316/28/1
f 317/29/1 318/30/1 221/31/1 220/32/1
f 318/1/1 319/2/1 222/3/1 221/4/1
f 320/1/1 321/2/1 224/3/1 223/4/1
f 321/1/1 322/2/1 225/3/1 224/4/1
f 322/1/1 323/2/1 227/3/1 225/4/1
f 323/1/1 324/2/1 229/3/1 227/4/1
f 324/1/1 325/2/1 231/3/1 229/4/1
f 325/1/1 326/2/1 233/3/1 231/4/1
f 326/1/1 327/2/1 235/3/1 233/4/1
f 327/1/1 328/2/1 237/3/1 235/4/1
f 328/1/1 329/2/1 239/3/1 237/4/1
f 329/1/1 330/2/1 241/3/1 239/4/1
f 330/1/1 331/2/1 243/3/1 241/4/1
f 331/1/1 332/2/1 245/3/1 243/4/1
f 332/1/1 333/2/1 247/3/1 245/4/1
f 333/1/1 334/2/1 249/3/1 247/4/1
f 334/1/1 335/2/1 251/3/1 249/4/1
f 335/1/1 336/2/1 253/3/1 251/4/1
f 336/1/1 337/2/1 255/3/1 253/4/1
f 337/1/1 338/2/1 257/3/1 255/4/1
f 338/1/1 339/2/1 259/3/1 257/4/1
f 339/1/1 340/2/1 261/3/1 259/4/1
f 340/1/1 341/2/1 263/3/1 261/4/1
f 341/1/1 342/2/1 265/3/1 263/4/1
f 342/1/1 343/2/1 267/3/1 265/4/1
f 343/1/1 344/2/1 269/3/1 267/4/1
f 344/1/1 345/2/1 271/3/1 269/4/1
f 345/1/1 346/2/1 273/3/1 271/4/1
f 346/1/1 347/2/1 275/3/1 273/4/1
f 347/1/1 348/2/1 277/3/1 275/4/1
f 348/1/1 349/2/1 279/3/1 277/4/1
f 349/1/1 350/2/1 281/3/1 279/4/1
f 350/1/1 351/2/1 283/3/1 281/4/1
f 351/1/1 352/2/1 285/3/1 283/4/1
f 352/1/1 353/2/1 287/3/1 285/4/1
f 353/1/1 354/2/1 289/3/1 287/4/1
f 354/1/1 355/2/1 291/3/1 289/4/1
f 355/1/1 356/2/1 293/3/1 291/4/1
f 356/1/1 357/2/1 295/3/1 293/4/1
f 357/1/1 358/2/1 297/3/1 295/4/1
f 358/1/1 359/2/1 299/3/1 297/4/1
f 359/1/1 360/2/1 301/3/1 299/4/1
f 360/1/1 361/2/1 303/3/1 301/4/1
f 361/1/1 362/2/1 305/3/1 303/4/1
f 362/1/1 363/2/1 307/3/1 305/4/1
f 363/1/1 364/2/1 309/3/1 307/4/1
f 364/1/1 365/2/1 311/3/1 309/4/1
f 365/1/1 366/2/1 313/3/1 311/4/1
f 366/1/1 367/2/1 315/3/1 313/4/1
f 367/1/1 368/2/1 317/3/1 315/4/1
f 368/1/1 369/2/1 318/3/1 317/4/1
f 369/1/1 370/2/1 319/3/1 318/4/1

