# Wavefront OBJ file automatically generated by Tiled2Unity

# Vertices (Count = 146)
v -3000 -700 0
v -3100 -700 0
v -3100 -600 0
v -3000 -600 0
v -3200 -700 0
v -3200 -600 0
v -3300 -700 0
v -3300 -600 0
v -3400 -700 0
v -3400 -600 0
v -3500 -700 0
v -3500 -600 0
v -3600 -700 0
v -3600 -600 0
v -3700 -700 0
v -3700 -600 0
v -3800 -700 0
v -3800 -600 0
v -3900 -700 0
v -3900 -600 0
v -2000 -800 0
v -2100 -800 0
v -2100 -700 0
v -2000 -700 0
v -2200 -800 0
v -2200 -700 0
v -2300 -800 0
v -2300 -700 0
v -2400 -800 0
v -2400 -700 0
v -2500 -800 0
v -2500 -700 0
v -2600 -800 0
v -2600 -700 0
v -3000 -800 0
v -3100 -800 0
v -3200 -800 0
v -3300 -800 0
v -3400 -800 0
v -3500 -800 0
v -3600 -800 0
v -3700 -800 0
v -3800 -800 0
v -3900 -800 0
v 0 -900 0
v -100 -900 0
v -100 -800 0
v 0 -800 0
v -200 -900 0
v -200 -800 0
v -300 -900 0
v -300 -800 0
v -400 -900 0
v -400 -800 0
v -500 -900 0
v -500 -800 0
v -600 -900 0
v -600 -800 0
v -700 -900 0
v -700 -800 0
v -800 -900 0
v -800 -800 0
v -900 -900 0
v -900 -800 0
v -1000 -900 0
v -1000 -800 0
v -1100 -900 0
v -1100 -800 0
v -1200 -900 0
v -1300 -900 0
v -1300 -800 0
v -1200 -800 0
v -1400 -900 0
v -1400 -800 0
v -1500 -900 0
v -1500 -800 0
v -1600 -900 0
v -1600 -800 0
v -2000 -900 0
v -2100 -900 0
v -2200 -900 0
v -2300 -900 0
v -2400 -900 0
v -2500 -900 0
v -2600 -900 0
v -2700 -900 0
v -2700 -800 0
v -2800 -900 0
v -2800 -800 0
v -2900 -900 0
v -2900 -800 0
v -3000 -900 0
v -3100 -900 0
v -3200 -900 0
v -3300 -900 0
v -3400 -900 0
v -3500 -900 0
v -3600 -900 0
v -3700 -900 0
v -3800 -900 0
v -3900 -900 0
v 0 -1000 0
v -100 -1000 0
v -200 -1000 0
v -300 -1000 0
v -400 -1000 0
v -500 -1000 0
v -600 -1000 0
v -700 -1000 0
v -800 -1000 0
v -900 -1000 0
v -1000 -1000 0
v -1100 -1000 0
v -1200 -1000 0
v -1300 -1000 0
v -1400 -1000 0
v -1500 -1000 0
v -1600 -1000 0
v -1700 -1000 0
v -1700 -900 0
v -1800 -1000 0
v -1800 -900 0
v -1900 -1000 0
v -1900 -900 0
v -2000 -1000 0
v -2100 -1000 0
v -2200 -1000 0
v -2300 -1000 0
v -2400 -1000 0
v -2500 -1000 0
v -2600 -1000 0
v -2700 -1000 0
v -2800 -1000 0
v -2900 -1000 0
v -3000 -1000 0
v -3100 -1000 0
v -3200 -1000 0
v -3300 -1000 0
v -3400 -1000 0
v -3500 -1000 0
v -3600 -1000 0
v -3700 -1000 0
v -3800 -1000 0
v -3900 -1000 0
v -2600 -600 0
v -1600 -700 0

# Texture cooridinates (Count = 80)
vt 0.6001221 0.900122
vt 0.6998779 0.900122
vt 0.6998779 0.9998779
vt 0.6001221 0.9998779
vt 0.7001221 0.900122
vt 0.7998779 0.900122
vt 0.7998779 0.9998779
vt 0.7001221 0.9998779
vt 0.2001221 0.900122
vt 0.2998779 0.900122
vt 0.2998779 0.9998779
vt 0.2001221 0.9998779
vt 0.3001221 0.900122
vt 0.3998779 0.900122
vt 0.3998779 0.9998779
vt 0.3001221 0.9998779
vt 0.4001221 0.900122
vt 0.4998779 0.900122
vt 0.4998779 0.9998779
vt 0.4001221 0.9998779
vt 0.8001221 0.900122
vt 0.8998779 0.900122
vt 0.8998779 0.9998779
vt 0.8001221 0.9998779
vt 0.6001221 0.8001221
vt 0.6998779 0.8001221
vt 0.6998779 0.8998779
vt 0.6001221 0.8998779
vt 0.7001221 0.8001221
vt 0.7998779 0.8001221
vt 0.7998779 0.8998779
vt 0.7001221 0.8998779
vt 0.2001221 0.8001221
vt 0.2998779 0.8001221
vt 0.2998779 0.8998779
vt 0.2001221 0.8998779
vt 0.3001221 0.8001221
vt 0.3998779 0.8001221
vt 0.3998779 0.8998779
vt 0.3001221 0.8998779
vt 0.4001221 0.8001221
vt 0.4998779 0.8001221
vt 0.4998779 0.8998779
vt 0.4001221 0.8998779
vt 0.8001221 0.8001221
vt 0.8998779 0.8001221
vt 0.8998779 0.8998779
vt 0.8001221 0.8998779
vt 0.0001220703 0.900122
vt 0.09987793 0.900122
vt 0.09987793 0.9998779
vt 0.0001220703 0.9998779
vt 0.1001221 0.900122
vt 0.1998779 0.900122
vt 0.1998779 0.9998779
vt 0.1001221 0.9998779
vt 0.5001221 0.900122
vt 0.599878 0.900122
vt 0.599878 0.9998779
vt 0.5001221 0.9998779
vt 0.0001220703 0.8001221
vt 0.09987793 0.8001221
vt 0.09987793 0.8998779
vt 0.0001220703 0.8998779
vt 0.1001221 0.8001221
vt 0.1998779 0.8001221
vt 0.1998779 0.8998779
vt 0.1001221 0.8998779
vt 0.5001221 0.8001221
vt 0.599878 0.8001221
vt 0.599878 0.8998779
vt 0.5001221 0.8998779
vt 0.3001221 0.4001221
vt 0.3998779 0.4001221
vt 0.3998779 0.4998779
vt 0.3001221 0.4998779
vt 0.0001220703 0.0001220703
vt 0.3998779 0.0001220703
vt 0.3998779 0.1998779
vt 0.0001220703 0.1998779

# Normal
vn 0 0 -1

# Groups (Count = 1)

g mesh_0001
f 1/1/1 2/2/1 3/3/1 4/4/1
f 2/5/1 5/6/1 6/7/1 3/8/1
f 5/9/1 7/10/1 8/11/1 6/12/1
f 7/13/1 9/14/1 10/15/1 8/16/1
f 9/17/1 11/18/1 12/19/1 10/20/1
f 11/9/1 13/10/1 14/11/1 12/12/1
f 13/9/1 15/10/1 16/11/1 14/12/1
f 15/9/1 17/10/1 18/11/1 16/12/1
f 17/21/1 19/22/1 20/23/1 18/24/1
f 21/9/1 22/10/1 23/11/1 24/12/1
f 22/9/1 25/10/1 26/11/1 23/12/1
f 25/9/1 27/10/1 28/11/1 26/12/1
f 27/9/1 29/10/1 30/11/1 28/12/1
f 29/9/1 31/10/1 32/11/1 30/12/1
f 31/9/1 33/10/1 34/11/1 32/12/1
f 35/25/1 36/26/1 2/27/1 1/28/1
f 36/29/1 37/30/1 5/31/1 2/32/1
f 37/33/1 38/34/1 7/35/1 5/36/1
f 38/37/1 39/38/1 9/39/1 7/40/1
f 39/41/1 40/42/1 11/43/1 9/44/1
f 40/33/1 41/34/1 13/35/1 11/36/1
f 41/33/1 42/34/1 15/35/1 13/36/1
f 42/33/1 43/34/1 17/35/1 15/36/1
f 43/45/1 44/46/1 19/47/1 17/48/1
f 45/49/1 46/50/1 47/51/1 48/52/1
f 46/53/1 49/54/1 50/55/1 47/56/1
f 49/9/1 51/10/1 52/11/1 50/12/1
f 51/9/1 53/10/1 54/11/1 52/12/1
f 53/13/1 55/14/1 56/15/1 54/16/1
f 55/17/1 57/18/1 58/19/1 56/20/1
f 57/57/1 59/58/1 60/59/1 58/60/1
f 59/9/1 61/10/1 62/11/1 60/12/1
f 61/9/1 63/10/1 64/11/1 62/12/1
f 63/13/1 65/14/1 66/15/1 64/16/1
f 65/21/1 67/22/1 68/23/1 66/24/1
f 69/49/1 70/50/1 71/51/1 72/52/1
f 70/13/1 73/14/1 74/15/1 71/16/1
f 73/17/1 75/18/1 76/19/1 74/20/1
f 75/57/1 77/58/1 78/59/1 76/60/1
f 79/33/1 80/34/1 22/35/1 21/36/1
f 80/33/1 81/34/1 25/35/1 22/36/1
f 81/33/1 82/34/1 27/35/1 25/36/1
f 82/33/1 83/34/1 29/35/1 27/36/1
f 83/33/1 84/34/1 31/35/1 29/36/1
f 84/33/1 85/34/1 33/35/1 31/36/1
f 85/29/1 86/30/1 87/31/1 33/32/1
f 86/29/1 88/30/1 89/31/1 87/32/1
f 88/29/1 90/30/1 91/31/1 89/32/1
f 90/29/1 92/30/1 35/31/1 91/32/1
f 92/29/1 93/30/1 36/31/1 35/32/1
f 93/29/1 94/30/1 37/31/1 36/32/1
f 94/45/1 95/46/1 38/47/1 37/48/1
f 95/45/1 96/46/1 39/47/1 38/48/1
f 96/45/1 97/46/1 40/47/1 39/48/1
f 97/45/1 98/46/1 41/47/1 40/48/1
f 98/45/1 99/46/1 42/47/1 41/48/1
f 99/45/1 100/46/1 43/47/1 42/48/1
f 100/45/1 101/46/1 44/47/1 43/48/1
f 102/61/1 103/62/1 46/63/1 45/64/1
f 103/65/1 104/66/1 49/67/1 46/68/1
f 104/33/1 105/34/1 51/35/1 49/36/1
f 105/33/1 106/34/1 53/35/1 51/36/1
f 106/37/1 107/38/1 55/39/1 53/40/1
f 107/41/1 108/42/1 57/43/1 55/44/1
f 108/69/1 109/70/1 59/71/1 57/72/1
f 109/33/1 110/34/1 61/35/1 59/36/1
f 110/33/1 111/34/1 63/35/1 61/36/1
f 111/37/1 112/38/1 65/39/1 63/40/1
f 112/41/1 113/42/1 67/43/1 65/44/1
f 113/57/1 114/58/1 69/59/1 67/60/1
f 114/73/1 115/74/1 70/75/1 69/76/1
f 115/37/1 116/38/1 73/39/1 70/40/1
f 116/41/1 117/42/1 75/43/1 73/44/1
f 117/69/1 118/70/1 77/71/1 75/72/1
f 118/45/1 119/46/1 120/47/1 77/48/1
f 119/45/1 121/46/1 122/47/1 120/48/1
f 121/45/1 123/46/1 124/47/1 122/48/1
f 123/45/1 125/46/1 79/47/1 124/48/1
f 125/45/1 126/46/1 80/47/1 79/48/1
f 126/45/1 127/46/1 81/47/1 80/48/1
f 127/45/1 128/46/1 82/47/1 81/48/1
f 128/45/1 129/46/1 83/47/1 82/48/1
f 129/45/1 130/46/1 84/47/1 83/48/1
f 130/45/1 131/46/1 85/47/1 84/48/1
f 131/45/1 132/46/1 86/47/1 85/48/1
f 132/29/1 133/30/1 88/31/1 86/32/1
f 133/29/1 134/30/1 90/31/1 88/32/1
f 134/29/1 135/30/1 92/31/1 90/32/1
f 135/29/1 136/30/1 93/31/1 92/32/1
f 136/29/1 137/30/1 94/31/1 93/32/1
f 137/45/1 138/46/1 95/47/1 94/48/1
f 138/45/1 139/46/1 96/47/1 95/48/1
f 139/45/1 140/46/1 97/47/1 96/48/1
f 140/45/1 141/46/1 98/47/1 97/48/1
f 141/45/1 142/46/1 99/47/1 98/48/1
f 142/45/1 143/46/1 100/47/1 99/48/1
f 143/45/1 144/46/1 101/47/1 100/48/1

g mesh_0002
f 33/77/1 35/78/1 4/79/1 145/80/1
f 77/77/1 79/78/1 24/79/1 146/80/1

